<?xml version="1.0" encoding="UTF-8" standalone="no"?>
<svg
   xmlns:dc="http://purl.org/dc/elements/1.1/"
   xmlns:cc="http://creativecommons.org/ns#"
   xmlns:rdf="http://www.w3.org/1999/02/22-rdf-syntax-ns#"
   xmlns:svg="http://www.w3.org/2000/svg"
   xmlns="http://www.w3.org/2000/svg"
   xmlns:sodipodi="http://sodipodi.sourceforge.net/DTD/sodipodi-0.dtd"
   xmlns:inkscape="http://www.inkscape.org/namespaces/inkscape"
   version="1.1"
   width="24px"
   height="24px"
   id="svg3729"
   sodipodi:docname="RelDissolve.svg"
   inkscape:version="0.92.4 (5da689c313, 2019-01-14)">
  <metadata
     id="metadata3735">
    <rdf:RDF>
      <cc:Work
         rdf:about="">
        <dc:format>image/svg+xml</dc:format>
        <dc:type
           rdf:resource="http://purl.org/dc/dcmitype/StillImage" />
      </cc:Work>
    </rdf:RDF>
  </metadata>
  <defs
     id="defs3733" />
  <sodipodi:namedview
     pagecolor="#ffffff"
     bordercolor="#666666"
     borderopacity="1"
     objecttolerance="10"
     gridtolerance="10"
     guidetolerance="10"
     inkscape:pageopacity="0"
     inkscape:pageshadow="2"
     inkscape:window-width="1280"
     inkscape:window-height="962"
     id="namedview3731"
     showgrid="false"
     inkscape:zoom="2.8100129"
     inkscape:cx="72.565425"
     inkscape:cy="6.6226591"
     inkscape:window-x="-8"
     inkscape:window-y="-8"
     inkscape:window-maximized="1"
     inkscape:current-layer="svg3729" />
  <path
     style="fill:none;stroke:#000000;stroke-width:1px;stroke-linecap:butt;stroke-linejoin:miter;stroke-opacity:1"
     d="m 16.419398,7.9580602 c 0,0.146789 0,0.293578 0,0.440367 0,0.04194 0.01326,0.086032 0,0.1258192 -0.0094,0.028134 -0.04965,0.036384 -0.06291,0.062909 -0.01876,0.037512 0.02966,0.096163 0,0.1258192 -0.01483,0.014828 -0.04808,-0.014828 -0.06291,0 -0.01483,0.014828 0.01483,0.048082 0,0.062909 -0.02965,0.029656 -0.08831,-0.018756 -0.125819,0 -0.02652,0.013262 -0.04965,0.036385 -0.06291,0.06291 -0.0094,0.018756 0.01989,0.056278 0,0.06291 -0.05968,0.019894 -0.127041,-0.012338 -0.188729,0 -0.04598,0.0092 -0.08228,0.045495 -0.125819,0.062909 -0.06157,0.024628 -0.127159,0.038282 -0.188729,0.06291 -0.04354,0.017415 -0.08033,0.051537 -0.125819,0.06291 -0.06172,0.01543 -0.341124,-0.018167 -0.377457,0 -0.02652,0.013262 -0.03478,0.053532 -0.06291,0.062909 -0.0859,0.028632 -0.291561,-0.028632 -0.377457,0 -0.02813,0.00938 -0.03638,0.049647 -0.06291,0.06291 -0.01876,0.00938 -0.04194,0 -0.06291,0 -0.02097,0 -0.04194,0 -0.06291,0 -0.125819,0 -0.251638,0 -0.377457,0 -0.12582,0 -0.251639,0 -0.377458,0 -0.06291,0 -0.127697,0.015258 -0.188729,0 -0.02877,-0.00719 -0.03383,-0.057094 -0.06291,-0.06291 -0.08225,-0.01645 -0.1689,0.01379 -0.251638,0 -0.09141,-0.015234 -0.131204,-0.068294 -0.188729,-0.1258191 -0.02097,-0.02097 -0.03414,-0.055717 -0.06291,-0.06291 -0.06103,-0.015258 -0.125819,0 -0.188728,0 -0.02097,0 -0.04415,0.00938 -0.06291,0 -0.02653,-0.013263 -0.04194,-0.04194 -0.06291,-0.062909 -0.06291,0 -0.127697,0.015258 -0.188728,0 -0.02877,-0.00719 -0.03638,-0.049647 -0.06291,-0.06291 -0.02293,-0.011464 -0.278299,0 -0.314548,0 -0.146789,0 -0.293578,0 -0.440367,0 -0.04194,0 -0.08513,-0.010172 -0.125819,0 -0.04549,0.011373 -0.08033,0.051537 -0.125819,0.06291 -0.08137,0.020344 -0.170263,-0.020344 -0.251638,0 -0.04549,0.011372 -0.08134,0.048082 -0.125819,0.062909 -0.01989,0.00663 -0.04194,0 -0.06291,0 -0.06291,0.02097 -0.127159,0.038282 -0.188729,0.06291 -0.04354,0.017415 -0.08033,0.051537 -0.125819,0.06291 -0.06103,0.015258 -0.129047,-0.019894 -0.188728,0 -0.113863,-0.037917 -0.117001,0.1019098 -0.188729,0.1258191 -0.03979,0.013262 -0.08603,-0.013262 -0.125819,0 -0.02813,0.00938 -0.03478,0.053532 -0.06291,0.06291 -2.85e-4,9.5e-5 -0.1886684,-6.01e-5 -0.1887294,0 -0.01483,0.014828 0.01483,0.048082 0,0.062909 -0.04274,0.042736 -0.125112,-0.064324 -0.188728,0.06291 -0.0094,0.018756 0.01876,0.053532 0,0.06291 -0.05033,0.025164 -0.1384013,-0.025164 -0.1887289,0 -0.026525,0.013262 -0.04194,0.04194 -0.06291,0.062909 -0.02097,0.02097 -0.049647,0.036385 -0.062909,0.06291 -0.00938,0.018756 0.014828,0.048082 0,0.06291 -0.014828,0.014828 -0.048082,-0.014828 -0.06291,0 -0.014828,0.014828 0,0.04194 0,0.062909 0,0.04194 0.018756,0.088307 0,0.1258192 -0.00938,0.018756 -0.048082,-0.014828 -0.06291,0 -0.014828,0.014828 0.00938,0.044154 0,0.062909 -0.013262,0.026525 -0.049647,0.036385 -0.062909,0.06291 -0.00813,0.016265 0,0.3328672 0,0.3774572 0,0.02097 0.00938,0.04415 0,0.06291 -0.013262,0.02653 -0.049647,0.03639 -0.06291,0.06291 -0.00827,0.01654 0,0.218742 0,0.251639 0,0.167758 0,0.335517 0,0.503276 0,0.06749 -0.013861,0.398784 0,0.440367 0.1518934,0.45568 -0.018137,-0.09918 0.1258191,0.188729 0.0201,0.0402 -0.016879,0.201002 0,0.251638 0.014828,0.04448 0.048082,0.08134 0.06291,0.125819 0.00663,0.01989 -0.00938,0.04415 0,0.06291 0.013262,0.02653 0.053532,0.03477 0.06291,0.06291 0.015175,0.04552 -0.020737,0.230901 0,0.251639 0.014828,0.01483 0.048082,-0.01483 0.062909,0 0.017214,0.01721 -0.017064,0.21751 0,0.251638 0.013262,0.02653 0.049647,0.03638 0.06291,0.06291 0.00938,0.01876 -0.014828,0.04808 0,0.06291 0.014828,0.01483 0.048082,-0.01483 0.06291,0 0.014828,0.01483 -0.014828,0.04808 0,0.06291 0.014828,0.01483 0.048082,-0.01483 0.062909,0 0.01483,0.01483 -0.014828,0.04808 0,0.06291 0.130162,0.130162 -0.00509,-0.198905 0.125819,0.06291 0.0094,0.01876 -0.01483,0.04808 0,0.06291 0.01483,0.01483 0.04415,-0.0094 0.06291,0 0.02652,0.01326 0.04194,0.04194 0.06291,0.06291 0.02097,0.02097 0.04965,0.03638 0.06291,0.06291 0,0.167759 -0.02097,-0.02097 0.06291,0.06291 0.01483,0.01483 -0.01483,0.04808 0,0.06291 0.01483,0.01483 0.04808,-0.01483 0.06291,0 0.03316,0.03316 0.02975,0.09266 0.06291,0.125819 0.01483,0.01483 0.04808,-0.01483 0.06291,0 0.01483,0.01483 -0.01483,0.04808 0,0.06291 0.01483,0.01483 0.04808,-0.01483 0.06291,0 0.02966,0.02966 -0.02966,0.09616 0,0.125819 0.01483,0.01483 0.04808,-0.01483 0.06291,0 0.01483,0.01483 -0.01483,0.04808 0,0.06291 0.01483,0.01483 0.04808,-0.01483 0.06291,0 0.02966,0.02966 -0.01876,0.08831 0,0.125819 0.01326,0.02652 0.04965,0.03639 0.06291,0.06291 0.0094,0.01876 -0.0094,0.04415 0,0.06291 0.02652,0.05305 0.107063,0.06955 0.125819,0.125819 0.01326,0.03979 -0.01876,0.08831 0,0.12582 0.0094,0.01876 0.04808,-0.01483 0.06291,0 0.02966,0.02965 -0.01876,0.08831 0,0.125819 0.130908,0.261814 -0.0043,-0.06725 0.125819,0.06291 0.02966,0.02966 -0.02965,0.09616 0,0.125819 0.01483,0.01483 0.04808,-0.01483 0.06291,0 0.02966,0.02966 -0.01876,0.08831 0,0.12582 0.03333,0.06667 0.09249,0.05915 0.125819,0.125819 0.01977,0.03954 -0.01977,0.212098 0,0.251638 0.01326,0.02652 0.04965,0.03638 0.06291,0.06291 0.0096,0.01915 0,0.160397 0,0.188729 0,0.125819 0,0.251638 0,0.377458 0,0.06291 -0.01989,0.129047 0,0.188728 0.0094,0.02813 0.05353,0.03478 0.06291,0.06291 0.01943,0.05828 -0.02009,0.254267 0,0.314548 0.01483,0.04448 0.05154,0.08033 0.06291,0.125819 0.01017,0.04069 -0.01326,0.08603 0,0.125819 0.0094,0.02813 0.04965,0.03638 0.06291,0.06291 0.01876,0.03751 -0.02965,0.09616 0,0.125819 0.01483,0.01483 0.04808,-0.01483 0.06291,0 0.01483,0.01483 0,0.04194 0,0.06291 0,0.02097 0,0.04194 0,0.06291 0,0.188728 0,0.377457 0,0.566186 0,0.142127 -0.0094,-0.02813 0.06291,0.188729 0.01146,0.03439 0,0.391191 0,0.440367 0,0.251638 0,0.503276 0,0.754914"
     id="path4554"
     inkscape:connector-curvature="0" />
  <path
     style="fill:none;stroke:#ab3217;stroke-width:1px;stroke-linecap:butt;stroke-linejoin:miter;stroke-opacity:1"
     d="m 5.6453775,9.2454261 c 0,0.094364 0,0.1887287 0,0.283093 0,0.04194 0.00417,0.084088 0,0.1258192 -0.00635,0.063461 -0.026158,0.1251716 -0.031455,0.1887287 -0.00522,0.062692 0.00957,0.1265506 0,0.188729 -0.011607,0.07544 -0.046916,0.145546 -0.06291,0.220183 -0.015534,0.07249 -0.01592,0.14769 -0.031455,0.220184 -0.015994,0.07464 -0.04194,0.146789 -0.06291,0.220183 -0.033974,0.11891 -0.079735,0.291142 -0.1258191,0.408913 -0.070243,0.179508 -0.1442504,0.357553 -0.2201835,0.53473 -0.018471,0.0431 -0.0369,0.0868 -0.06291,0.125819 -0.079106,0.118659 -0.1635305,0.233866 -0.2516383,0.346003 -0.027483,0.03498 -0.06059,0.06541 -0.094364,0.09436 -0.076974,0.06598 -0.1561695,0.121473 -0.2516383,0.157274 -0.040478,0.01518 -0.085341,0.01628 -0.1258191,0.03146 -0.043905,0.01646 -0.083879,0.04194 -0.1258192,0.06291 -0.04194,0.02097 -0.085107,0.03965 -0.1258191,0.06291 -0.032823,0.01876 -0.060552,0.046 -0.094364,0.06291 -0.3528897,0.176444 0.2379919,-0.167451 -0.2201835,0.09436 -0.032823,0.01876 -0.060551,0.046 -0.094364,0.06291 -0.029656,0.01483 -0.064709,0.01663 -0.094364,0.03145 -0.013263,0.0066 -0.02097,0.02097 -0.031455,0.03145 -0.010485,0.01049 -0.02097,0.02097 -0.031455,0.03146 -0.083879,0.01049 -0.1687472,0.01488 -0.2516375,0.03146 -0.1265858,0.02532 -0.014447,0.02295 -0.094364,0.06291 -0.029656,0.01483 -0.064709,0.01663 -0.094364,0.03146 -0.026525,0.01326 -0.036385,0.04965 -0.062909,0.06291 -0.2311911,0.07706 -0.01602,-0.01029 -0.1258192,0.06291 -0.019507,0.013 -0.046331,0.01488 -0.062909,0.03145 -0.00741,0.0074 0.00741,0.02404 0,0.03146 -0.00741,0.0074 -0.022731,-0.0058 -0.031455,0 -0.024675,0.01645 -0.039185,0.04512 -0.06291,0.06291 -0.018756,0.01407 -0.046331,0.01488 -0.06291,0.03145 -0.00741,0.0074 0.00741,0.02404 0,0.03146 -0.016578,0.01658 -0.044154,0.01739 -0.062909,0.03145 -0.01714,0.01286 -0.1457269,0.139953 -0.1572739,0.157273 -0.00582,0.0087 0.00741,0.02404 0,0.03145 -0.00741,0.0074 -0.024041,-0.0074 -0.031455,0 -0.00741,0.0074 0.00469,0.02208 0,0.03146 -0.013263,0.02652 -0.049647,0.03638 -0.06291,0.06291 -0.00469,0.0094 0.00741,0.02404 0,0.03145 -0.00741,0.0074 -0.024041,-0.0074 -0.031455,0 -0.014828,0.01483 0.00938,0.04415 0,0.06291 -0.00663,0.01326 -0.024823,0.01819 -0.031455,0.03145 -0.00469,0.0094 0.00469,0.02208 0,0.03146 -0.00663,0.01326 -0.026766,0.01739 -0.031455,0.03145 -0.00944,0.02831 0.00944,0.06606 0,0.09436 -0.075947,0.22784 0.00907,-0.04959 -0.06291,0.09436 -0.00469,0.0094 0,0.02097 0,0.03145 0,0.02097 0.00663,0.04302 0,0.06291 -0.00938,0.02813 -0.053532,0.03478 -0.06291,0.06291 -0.1123841,0.05005 -0.015986,0.126856 -0.031455,0.188729 -0.00804,0.03217 -0.024952,0.06185 -0.031455,0.09436 -0.00411,0.02056 0.00938,0.04415 0,0.06291 -0.00469,0.0094 -0.024041,-0.0074 -0.031455,0 -1.671e-4,1.67e-4 2.629e-4,0.09331 0,0.09436 -0.00569,0.02275 -0.024041,0.04067 -0.031455,0.06291 -0.00663,0.01989 0.00938,0.04415 0,0.06291 -0.00663,0.01326 -0.026766,0.01739 -0.031455,0.03145 -0.00663,0.01989 0.00663,0.04302 0,0.06291 -0.00469,0.01407 -0.024823,0.01819 -0.031455,0.03145 -0.00955,0.0191 0.00955,0.169629 0,0.188729 -0.00663,0.01326 -0.024824,0.01819 -0.031455,0.03145 -0.00469,0.0094 0,0.02097 0,0.03145 0,0.01049 0,0.02097 0,0.03145 0,0.0076 0.00101,0.09335 0,0.09437 -0.00741,0.0074 -0.024041,-0.0074 -0.031455,0 -0.00741,0.0074 0,0.02097 0,0.03145 0,0.02636 0.00668,0.143906 0,0.157274 -0.00469,0.0094 -0.026766,-0.0094 -0.031455,0 -0.0059,0.0118 0,0.170002 0,0.188729 0,0.02229 -0.00407,0.180596 0,0.188729 0.00663,0.01326 0.024824,0.01819 0.031455,0.03145 0.00469,0.0094 0,0.02097 0,0.03146 0,0.02097 -0.00663,0.04302 0,0.06291 0.00469,0.01407 0.024824,0.01819 0.031455,0.03145 0.016842,0.03368 -0.016842,0.02923 0,0.06291 0.00663,0.01326 0.024824,0.01819 0.031455,0.03146 0.00938,0.01876 -0.00663,0.04302 0,0.06291 0.014828,0.04448 0.051537,0.08033 0.06291,0.125819 0.00509,0.02034 -0.00663,0.04302 0,0.06291 0.00469,0.01407 0.024823,0.01819 0.031455,0.03145 0.010485,0.03146 0.02097,0.06291 0.031455,0.09436 0,0.01048 -0.00332,0.02151 0,0.03145 0.00741,0.02224 0.01845,0.0434 0.031455,0.06291 0.00823,0.01234 0.026766,0.01739 0.031455,0.03145 0.00663,0.01989 -0.00938,0.04415 0,0.06291 0.00469,0.0094 0.024041,-0.0074 0.031455,0 0.1227597,0.12276 -0.00728,0.01689 0.031455,0.09436 0.00663,0.01326 0.02323,0.01912 0.031455,0.03146 0.013005,0.01951 0.01845,0.0434 0.031455,0.06291 0.00822,0.01234 0.024823,0.01819 0.031455,0.03146 0.014828,0.02965 0.019141,0.06358 0.031455,0.09436 0.00871,0.02177 0.02097,0.04194 0.031455,0.06291 0.010485,0.02097 0.017388,0.04415 0.031455,0.06291 0.017794,0.02373 0.051896,0.03538 0.06291,0.06291 0.011682,0.0292 -0.011682,0.06516 0,0.09436 0.011014,0.02754 0.045116,0.03918 0.062909,0.06291 0.041227,0.05497 0.031191,0.09384 0.06291,0.157273 0.013262,0.02652 0.053532,0.03478 0.06291,0.06291 0.00663,0.01989 -0.00663,0.04302 0,0.06291 0.00938,0.02813 0.053531,0.03477 0.062909,0.06291 0.00663,0.01989 -0.00938,0.04415 0,0.06291 0.00469,0.0094 0.024041,-0.0074 0.031455,0 0.00741,0.0074 -0.00469,0.02208 0,0.03146 0.00663,0.01326 0.02097,0.02097 0.031455,0.03145 0.010485,0.01048 0.018192,0.02482 0.031455,0.03145 0.00938,0.0047 0.022077,-0.0047 0.031455,0 0.013262,0.0066 0.02097,0.02097 0.031455,0.03146 0.010485,0.01048 0.024824,0.01819 0.031455,0.03146 0.00469,0.0094 -0.00741,0.02404 0,0.03145 0.00741,0.0074 0.022077,-0.0047 0.031455,0 0.026525,0.01326 0.038234,0.04646 0.06291,0.06291 0.019507,0.013 0.046331,0.01488 0.062909,0.03146 0.065081,0.06508 -0.099452,-0.0025 0.031455,0.06291 0.00938,0.0047 0.022077,-0.0047 0.031455,0 0.02788,0.01394 0.065731,0.07528 0.094364,0.09437 0.019507,0.013 0.043402,0.01845 0.062909,0.03145 0.037013,0.02468 0.058777,0.06767 0.094364,0.09436 0.018756,0.01407 0.043402,0.01845 0.06291,0.03145 0.1327066,0.08847 -0.1708735,-0.05398 0.1258191,0.09436 0.00938,0.0047 0.024041,-0.0074 0.031455,0 0.016578,0.01658 0.012699,0.04884 0.031455,0.06291 0.026525,0.01989 0.064709,0.01663 0.094364,0.03145 0.013262,0.0066 0.019117,0.02323 0.031455,0.03146 0.019507,0.013 0.043402,0.01845 0.06291,0.03145 0.012337,0.0082 0.019117,0.02323 0.031455,0.03146 0.019508,0.013 0.04194,0.02097 0.06291,0.03145 0.02097,0.01048 0.041141,0.02275 0.06291,0.03146 0.030785,0.01231 0.064709,0.01663 0.094364,0.03145 0.013262,0.0066 0.019117,0.02323 0.031455,0.03146 0.039015,0.02601 0.086804,0.0369 0.1258191,0.06291 0.012338,0.0082 0.018192,0.02482 0.031455,0.03145 0.00938,0.0047 0.021508,-0.0033 0.031455,0 0.044484,0.01483 0.081335,0.04808 0.1258191,0.06291 0.00995,0.0033 0.022077,-0.0047 0.031455,0 0.013263,0.0066 0.018192,0.02482 0.031455,0.03145 0.018756,0.0094 0.048082,-0.01483 0.06291,0 0.00741,0.0074 -0.00741,0.02404 0,0.03145 0.079452,0.07945 0.036261,0.01209 0.094364,0.03146 0.044484,0.01483 0.083879,0.04194 0.1258192,0.06291 0.02097,0.01049 0.040165,0.02577 0.062909,0.03145 0.020344,0.0051 0.042566,-0.0051 0.06291,0 0.061065,0.01527 0.1008972,0.07181 0.1572739,0.09436 0.01947,0.0078 0.043016,-0.0066 0.06291,0 0.014067,0.0047 0.01707,0.02786 0.031455,0.03146 0.030516,0.0076 0.063849,-0.0076 0.094364,0 0.014385,0.0036 0.018192,0.02482 0.031455,0.03145 0.018559,0.0093 0.072729,-0.0072 0.094364,0 0.022242,0.0074 0.040668,0.02404 0.062909,0.03146 0.019894,0.0066 0.044154,-0.0094 0.06291,0 0.013262,0.0066 0.018192,0.02482 0.031455,0.03146 0.01988,0.0099 0.1544383,-0.0086 0.1887287,0 0.032166,0.008 0.062198,0.02341 0.094364,0.03145 0.010172,0.0025 0.02097,0 0.031455,0 0.05001,0 0.1474386,-0.0083 0.1887287,0 0.02299,0.0046 0.040165,0.02577 0.06291,0.03145 0.020344,0.0051 0.042347,-0.0041 0.06291,0 0.065025,0.013 0.1237039,0.0499 0.1887287,0.06291 0.050408,0.01008 0.1068656,-0.01008 0.1572739,0 0.2648391,0.05297 9.716e-4,4.86e-4 0.1258191,0.06291 0.00938,0.0047 0.02097,0 0.031455,0 0.031455,0 0.064524,-0.0099 0.094364,0 0.00995,0.0033 -0.00938,0.02677 0,0.03145 0.018756,0.0094 0.043016,-0.0066 0.06291,0 0.014067,0.0047 0.02097,0.02097 0.031455,0.03146 0.031455,0 0.063849,-0.0076 0.094364,0 0.014385,0.0036 0.019117,0.02323 0.031455,0.03145 0.019507,0.013 0.04136,0.02222 0.06291,0.03146 0.052425,0.02097 0.1048493,0.04194 0.1572739,0.06291 0.02097,0 0.043016,-0.0066 0.06291,0 0.044484,0.01483 0.081335,0.04808 0.1258191,0.06291 0.019894,0.0066 0.043016,-0.0066 0.06291,0 0.014067,0.0047 0.017388,0.02677 0.031455,0.03146 0.019894,0.0066 0.042566,-0.0051 0.062909,0 0.022745,0.0057 0.040165,0.02577 0.06291,0.03145 0.030516,0.0076 0.064524,-0.0099 0.094364,0 0.044484,0.01483 0.081335,0.04808 0.1258191,0.06291 0.00995,0.0033 0.02097,0 0.031455,0 0.02097,0 0.04194,0 0.062909,0 0.02097,0 0.042566,-0.0051 0.06291,0 0.04549,0.01137 0.080329,0.05154 0.1258191,0.06291 0.020344,0.0051 0.042566,-0.0051 0.06291,0 0.022745,0.0057 0.040165,0.02577 0.06291,0.03145 0.02392,0.006 0.130934,0 0.1572739,0 0.02097,0 0.042566,-0.0051 0.06291,0 0.022745,0.0057 0.040165,0.02577 0.062909,0.03146 0.020344,0.0051 0.042347,-0.0041 0.06291,0 0.2586235,0.08621 -0.066312,-0.01105 0.1887287,0.03146 0.032705,0.0055 0.061659,0.026 0.094364,0.03145 0.071208,0.01187 0.1774728,-0.0082 0.2516382,0 0.063387,0.007 0.1253415,0.02441 0.1887287,0.03146 0.031262,0.0035 0.06291,0 0.094364,0 0.083879,0 0.1677588,0 0.2516383,0 0.037155,0 0.1700234,0.0062 0.1887284,0 0.01407,-0.0047 0.01912,-0.02323 0.03145,-0.03146 0.06516,-0.04344 0.06066,-0.01947 0.125819,-0.06291 0.01234,-0.0082 0.01739,-0.02677 0.03146,-0.03146 0.01989,-0.0066 0.04302,0.0066 0.06291,0 0.01407,-0.0047 0.01912,-0.02323 0.03146,-0.03145 0.01951,-0.013 0.0434,-0.01845 0.06291,-0.03145 0.01234,-0.0082 0.01739,-0.02677 0.03146,-0.03146 0.01989,-0.0066 0.04302,0.0066 0.06291,0 0.01407,-0.0047 0.01912,-0.02323 0.03145,-0.03146 0.01951,-0.013 0.0434,-0.01845 0.06291,-0.03145 0.01234,-0.0082 0.01819,-0.02482 0.03145,-0.03145 0.0094,-0.0047 0.02208,0.0047 0.03146,0 0.09664,-0.04832 -0.05203,-0.01774 0.06291,-0.09436 0.01745,-0.01163 0.04546,0.01163 0.06291,0 0.01951,-0.013 0.01195,-0.0499 0.03146,-0.06291 0.01745,-0.01163 0.04302,0.0066 0.06291,0 0.01407,-0.0047 0.01959,-0.02256 0.03146,-0.03146 0.03024,-0.02268 0.06055,-0.046 0.09436,-0.06291 0.0094,-0.0047 0.02273,0.0058 0.03146,0 0.02097,-0.02097 0.04194,-0.04194 0.06291,-0.06291 0.01049,0 0.02208,0.0047 0.03146,0 0.02652,-0.01326 0.03823,-0.04646 0.06291,-0.06291 0.01951,-0.013 0.04633,-0.01488 0.06291,-0.03146 0.0074,-0.0074 -0.0074,-0.02404 0,-0.03145 0.01658,-0.01658 0.04633,-0.01488 0.06291,-0.03145 0.0074,-0.0074 -0.0074,-0.02404 0,-0.03146 0.01483,-0.01483 0.04415,0.0094 0.06291,0 0.01326,-0.0066 0.01819,-0.02482 0.03145,-0.03146 0.0094,-0.0047 0.02404,0.0074 0.03145,0 0.0074,-0.0074 -0.0047,-0.02208 0,-0.03145 0.0042,-0.0084 0.08601,-0.09019 0.09436,-0.09436 0.0094,-0.0047 0.02151,0.0033 0.03145,0 0.227841,-0.07595 -0.04959,0.0091 0.09436,-0.06291 0.01876,-0.0094 0.04808,0.01483 0.06291,0 0.0074,-0.0074 -0.0094,-0.02677 0,-0.03145 0.01876,-0.0094 0.04194,0 0.06291,0 0.05243,0 0.104849,0 0.157274,0 0.0324,0 0.210899,-0.0046 0.220183,0 0.01326,0.0066 0.01739,0.02677 0.03145,0.03145 0.01989,0.0066 0.04302,-0.0066 0.06291,0 0.01407,0.0047 0.01819,0.02482 0.03145,0.03145 0.0094,0.0047 0.02151,-0.0033 0.03145,0 0.02224,0.0074 0.04067,0.02404 0.06291,0.03146 0.04718,0.01573 0.03145,-0.03146 0.09436,0 0.0094,0.0047 -0.0074,0.02404 0,0.03146 0.0074,0.0074 0.02151,-0.0033 0.03146,0 0.02224,0.0074 0.04067,0.02404 0.06291,0.03145 0.0099,0.0033 0.02208,-0.0047 0.03145,0 0.01326,0.0066 0.01912,0.02323 0.03146,0.03146 0.01951,0.013 0.04067,0.02404 0.06291,0.03145 0.0099,0.0033 0.02404,-0.0074 0.03145,0 0.01658,0.01658 0.0127,0.04884 0.03145,0.06291 0.06098,0.04574 0.09629,0.01717 0.157274,0.06291 0.06291,0.05242 0.125819,0.10485 0.188729,0.157274 0.03146,0.01048 0.0672,0.01244 0.09436,0.03146 0.07919,0.05543 0.142006,0.131873 0.220184,0.188729 0.04943,0.03595 0.132559,0.06066 0.188728,0.09436 0.03242,0.01945 0.06055,0.046 0.09436,0.06291 0.02966,0.01483 0.06784,0.01156 0.09436,0.03145 0.01876,0.01407 0.01488,0.04633 0.03146,0.06291 0.01658,0.01658 0.04281,0.01939 0.06291,0.03146 0.03242,0.01945 0.06532,0.03871 0.09436,0.06291 0.03417,0.02848 0.05963,0.06658 0.09436,0.09436 0.01831,0.01465 0.0434,0.01845 0.06291,0.03146 0.01234,0.0082 0.01912,0.02323 0.03146,0.03145 0.01951,0.013 0.04415,0.01739 0.06291,0.03146 0.03972,0.02193 0.05878,0.06767 0.09436,0.09436 0.03024,0.02268 0.06412,0.04023 0.09436,0.06291 0.03523,0.02642 0.05913,0.06794 0.09436,0.09436 0.05536,0.04152 0.133368,0.05284 0.188729,0.09436 0.02373,0.01779 0.03918,0.04512 0.06291,0.06291 0.01876,0.01407 0.04194,0.02097 0.06291,0.03145 0.04194,0.02097 0.08228,0.04549 0.125819,0.06291 0.03079,0.01231 0.06358,0.01914 0.09436,0.03145 0.06531,0.02612 0.12582,0.06291 0.188729,0.09436 0.02097,0.01048 0.03992,0.02686 0.06291,0.03145 0.03084,0.0062 0.06452,-0.0099 0.09436,0 0.03586,0.01195 0.05962,0.04802 0.09436,0.06291 0.03974,0.01703 0.08609,0.01443 0.12582,0.03146 0.03475,0.01489 0.05802,0.05252 0.09436,0.06291 0.04033,0.01152 0.08388,0 0.125819,0 0.05243,0.01048 0.106555,0.01455 0.157274,0.03145 0.04448,0.01483 0.08191,0.04645 0.125819,0.06291 0.04048,0.01518 0.08388,0.02097 0.125819,0.03146 0.04194,0.01048 0.08302,0.02534 0.125819,0.03146 0.03114,0.0044 0.06334,-0.0052 0.09436,0 0.0327,0.0054 0.06291,0.02097 0.09436,0.03145 0.07339,0.01048 0.146412,0.02408 0.220184,0.03145 0.203356,0.02034 -0.02834,-0.0464 0.283093,0.03146 0.02274,0.0057 0.04016,0.02577 0.06291,0.03146 0.02034,0.0051 0.04257,-0.0051 0.06291,0 0.02275,0.0057 0.04016,0.02577 0.06291,0.03145 0.02034,0.0051 0.04257,-0.0051 0.06291,0 0.02275,0.0057 0.03992,0.02686 0.06291,0.03145 0.03084,0.0062 0.06291,0 0.09436,0 0.09436,0 0.188729,0 0.283093,0 0.09436,0 0.188729,0 0.283093,0 0.04098,0 0.122279,0.007 0.157274,0 0.03251,-0.0065 0.0622,-0.02341 0.09436,-0.03145 0.03947,-0.0099 0.08635,0.0099 0.125819,0 0.05693,0.01896 0.0585,-0.05095 0.09436,-0.06291 0.143191,0 0.0018,0.01483 0.09436,-0.03146 0.02085,-0.01042 0.09946,0.0088 0.125819,0 0.02224,-0.0074 0.04194,-0.02097 0.06291,-0.03145 0.04194,-0.02097 0.08388,-0.04194 0.125819,-0.06291 0.02097,-0.01048 0.04067,-0.02404 0.06291,-0.03146 0.09364,-0.03121 -0.06454,0.07448 0.09436,-0.03145 0.01234,-0.0082 0.01819,-0.02482 0.03146,-0.03146 0.0094,-0.0047 0.02208,0.0047 0.03145,0 0.02652,-0.01326 0.03638,-0.04965 0.06291,-0.06291 0.0094,-0.0047 0.02208,0.0047 0.03145,0 0.130907,-0.06545 -0.03363,0.0022 0.03145,-0.06291 0.0074,-0.0074 0.02404,0.0074 0.03146,0 0.0074,-0.0074 -0.0047,-0.02208 0,-0.03146 0.01326,-0.02652 0.05353,-0.03477 0.06291,-0.06291 0.0066,-0.01989 -0.0094,-0.04415 0,-0.06291 0.0047,-0.0094 0.02404,0.0074 0.03146,0 0.0074,-0.0074 -0.0074,-0.02404 0,-0.03145 0.06508,-0.06508 -0.0025,0.09945 0.06291,-0.03145 0.0047,-0.0094 -0.0074,-0.02404 0,-0.03146 0.0074,-0.0074 0.02208,0.0047 0.03145,0 0.01326,-0.0066 0.01819,-0.02482 0.03146,-0.03146 0.0094,-0.0047 0.02404,0.0074 0.03146,0 0,-0.04628 -0.0074,-0.02404 0.03145,-0.06291 0.01048,-0.01049 0.01819,-0.02482 0.03145,-0.03146 0.0094,-0.0047 0.02404,0.0074 0.03146,0 0.0074,-0.0074 -0.0058,-0.02273 0,-0.03146 0.01645,-0.02467 0.04646,-0.03823 0.06291,-0.06291 0.0058,-0.0087 -0.0074,-0.02404 0,-0.03145 0.03707,-0.03707 0.08488,-0.06161 0.12582,-0.09436 0.01158,-0.0093 0.02482,-0.01819 0.03145,-0.03145 0,-0.08388 -0.01048,0.01048 0.03146,-0.03146 0.0074,-0.0074 -0.0074,-0.02404 0,-0.03146 0.0074,-0.0074 0.02677,0.0094 0.03146,0 0.01258,-0.02516 -0.01258,-0.0692 0,-0.09436 0.07198,-0.143957 -0.01304,0.133475 0.06291,-0.09436 0.03121,-0.09363 -0.07448,0.06454 0.03145,-0.09436 0.03837,-0.05755 0.0401,-0.0031 0.06291,-0.09436 0.0051,-0.02034 -0.0051,-0.04257 0,-0.06291 0.0057,-0.02275 0.01845,-0.0434 0.03146,-0.06291 0.0082,-0.01234 0.02786,-0.01707 0.03145,-0.03145 0.07192,-0.287686 -0.08576,0.104305 0.03146,-0.188729 0.0087,-0.02177 0.01739,-0.04415 0.03145,-0.06291 0.01779,-0.02372 0.05439,-0.0345 0.06291,-0.06291 0.02429,-0.08097 0.01488,-0.168748 0.03145,-0.251638 0.0046,-0.02299 0.02529,-0.04029 0.03145,-0.06291 0.02544,-0.09326 0.03947,-0.189313 0.06291,-0.283093 0.01608,-0.06433 0.05201,-0.123318 0.06291,-0.188729 0.0052,-0.03103 -0.0052,-0.06334 0,-0.09436 0.0055,-0.0327 0.02341,-0.0622 0.03146,-0.09436 0.01297,-0.05187 0.01849,-0.105408 0.03146,-0.157274 0.01608,-0.06433 0.04683,-0.124396 0.06291,-0.188729 0.01297,-0.05187 0.01943,-0.10518 0.03145,-0.157274 0.01944,-0.08425 0.0487,-0.166354 0.06291,-0.251638 0.0069,-0.04137 0,-0.08388 0,-0.125819 0.02097,-0.09436 0.04562,-0.187986 0.06291,-0.283093 0.0094,-0.05158 -0.0086,-0.105563 0,-0.157274 0.0055,-0.0327 0.026,-0.06166 0.03146,-0.09436 0.0052,-0.03103 0,-0.06291 0,-0.09436 0,-0.03145 0,-0.06291 0,-0.09436 0,-0.09436 0,-0.188729 0,-0.283093 0,-0.06291 0,-0.12582 0,-0.188729 0,-0.03146 -0.0062,-0.06352 0,-0.09437 0.0046,-0.02299 0.02577,-0.04016 0.03146,-0.06291 0.0051,-0.02034 0,-0.04194 0,-0.06291 0,-0.04771 -0.007,-0.209406 0,-0.251638 0.0055,-0.0327 0.02495,-0.06185 0.03145,-0.09436 0.0041,-0.02056 0,-0.04194 0,-0.06291 0,-0.06291 0,-0.125819 0,-0.188729 0,-0.08388 0,-0.167758 0,-0.251638 0,-0.03145 0,-0.06291 0,-0.09436 0,-0.02097 -0.0066,-0.04302 0,-0.06291 0.0047,-0.01407 0.02677,-0.01739 0.03145,-0.03145 0.0066,-0.01989 0,-0.04194 0,-0.06291 0,-0.06291 0,-0.125819 0,-0.188729 0,-0.08388 0,-0.167759 0,-0.251638 0,-0.06291 0,-0.125819 0,-0.188729 0,-0.02097 0.0066,-0.04302 0,-0.06291 -0.0047,-0.01407 -0.02676,-0.01739 -0.03145,-0.03146 -0.0066,-0.01989 0.0051,-0.04257 0,-0.06291 -0.0057,-0.02275 -0.02404,-0.04067 -0.03145,-0.06291 -0.0063,-0.01887 0,-0.132175 0,-0.157274 0,-0.01049 0.0033,-0.02151 0,-0.03145 -0.0074,-0.02224 -0.02404,-0.04067 -0.03146,-0.06291 -0.01114,-0.03342 0.01114,-0.09239 0,-0.125819 -0.0074,-0.02224 -0.02404,-0.04067 -0.03146,-0.06291 -0.0033,-0.0099 0,-0.02097 0,-0.03145 0,-0.02857 0.0068,-0.199764 0,-0.220184 -0.0047,-0.01407 -0.02482,-0.01819 -0.03145,-0.03145 -0.0047,-0.0094 0,-0.02097 0,-0.03145 0,-0.03146 0.0062,-0.06352 0,-0.09436 -0.0046,-0.02299 -0.02686,-0.03992 -0.03145,-0.06291 -0.0062,-0.03084 0,-0.06291 0,-0.09436 0,-0.01049 0.0033,-0.02151 0,-0.03146 -0.0074,-0.02224 -0.02577,-0.04017 -0.03146,-0.06291 -0.0051,-0.02034 0.0066,-0.04302 0,-0.06291 -0.0047,-0.01407 -0.02097,-0.02097 -0.03146,-0.03145 -0.01048,-0.02097 -0.02577,-0.04017 -0.03145,-0.06291 -0.0064,-0.02558 0,-0.1558 0,-0.188728 0,-0.01049 0,-0.02097 0,-0.03146 0,-0.01048 0.0074,-0.02404 0,-0.03145 -0.0074,-0.0074 -0.02404,0.0074 -0.03145,0 -0.0074,-0.0074 -0.01049,-0.03146 0,-0.03146 0.01048,0 0.0047,0.04083 0,0.03146 -0.01483,-0.02966 -0.01914,-0.06358 -0.03146,-0.09436 -0.0087,-0.02177 -0.02404,-0.04067 -0.03146,-0.06291 -0.0033,-0.0099 0.0074,-0.02404 0,-0.03145 -0.0074,-0.0074 -0.02404,0.0074 -0.03146,0 -0.0074,-0.0074 0.0047,-0.02208 0,-0.03145 -0.0066,-0.01326 -0.02482,-0.01819 -0.03145,-0.03145 -0.01258,-0.02516 0.01258,-0.0692 0,-0.09436 -0.0066,-0.01326 -0.02677,-0.01739 -0.03145,-0.03145 -0.0066,-0.01989 0,-0.04194 0,-0.06291 0,-0.01048 0.0047,-0.02208 0,-0.03145 -0.0066,-0.01326 -0.02677,-0.01739 -0.03146,-0.03145 -0.0056,-0.01691 0,-0.09919 0,-0.12582 0,-0.03145 0,-0.06291 0,-0.09436 0,-0.02097 0.0066,-0.04302 0,-0.06291 -0.0047,-0.01407 -0.02323,-0.01912 -0.03146,-0.03145 -0.03619,-0.05429 -0.05268,-0.127358 -0.06291,-0.188729 -0.01187,-0.07123 0.01415,-0.149412 0,-0.220183 -0.0046,-0.02299 -0.02322,-0.04096 -0.03146,-0.06291 -0.02097,-0.06291 -0.04194,-0.125819 -0.06291,-0.188729 0,-0.01049 0.0033,-0.02151 0,-0.03145 -0.0074,-0.02224 -0.02275,-0.04114 -0.03146,-0.06291 -0.01231,-0.03078 -0.01663,-0.06471 -0.03145,-0.09436 -0.0066,-0.01326 -0.02482,-0.01819 -0.03146,-0.03145 -0.03874,-0.07747 0.09131,0.02839 -0.03145,-0.09436 -0.0074,-0.0074 -0.02677,0.0094 -0.03146,0 -0.0094,-0.01876 0.0066,-0.04302 0,-0.06291 -0.0094,-0.02813 -0.04965,-0.03639 -0.06291,-0.06291 -0.0047,-0.0094 0.0047,-0.02208 0,-0.03146 -0.0066,-0.01326 -0.02323,-0.01912 -0.03145,-0.03145 -0.013,-0.01951 -0.01488,-0.04633 -0.03146,-0.06291 -0.0074,-0.0074 -0.02404,0.0074 -0.03146,0 -0.01658,-0.01658 -0.01845,-0.0434 -0.03145,-0.06291 -0.0082,-0.01234 -0.02097,-0.02097 -0.03145,-0.03145 -0.01049,-0.01049 -0.01912,-0.02323 -0.03146,-0.03146 -0.01951,-0.013 -0.04633,-0.01488 -0.06291,-0.03145 -0.01658,-0.01658 -0.01488,-0.04633 -0.03145,-0.06291 -0.01658,-0.01658 -0.0434,-0.01845 -0.06291,-0.03145 -0.01234,-0.0082 -0.02097,-0.02097 -0.03145,-0.03146 -0.01049,-0.01048 -0.02323,-0.01912 -0.03145,-0.03145 -0.0039,-0.0059 -0.06089,-0.123803 -0.06291,-0.125819 -0.01658,-0.01658 -0.04633,-0.01488 -0.06291,-0.03145 -0.01658,-0.01658 -0.01845,-0.0434 -0.03145,-0.06291 -0.0082,-0.01234 -0.02097,-0.02097 -0.03146,-0.03145 -0.02097,-0.02097 -0.04194,-0.04194 -0.06291,-0.06291 -0.02097,-0.02097 -0.03918,-0.045116 -0.06291,-0.06291 -0.06049,-0.045365 -0.128243,-0.080454 -0.188729,-0.1258191 -0.04382,-0.032867 -0.08614,-0.086136 -0.125819,-0.1258191 -0.02097,-0.02097 -0.04194,-0.04194 -0.06291,-0.06291 -0.01048,-0.010485 -0.02323,-0.019117 -0.03145,-0.031455 -0.013,-0.019507 -0.01488,-0.046331 -0.03145,-0.06291 -0.01658,-0.016578 -0.04633,-0.014877 -0.06291,-0.031455 -0.01658,-0.016578 -0.01488,-0.046332 -0.03145,-0.06291 -0.0074,-0.00741 -0.02404,0.00741 -0.03145,0 -0.0764,-0.076397 0.0094,-0.046189 -0.06291,-0.094364 -0.01951,-0.013005 -0.0434,-0.01845 -0.06291,-0.031455 -0.02467,-0.01645 -0.03823,-0.046459 -0.06291,-0.06291 -0.01951,-0.013005 -0.0434,-0.01845 -0.06291,-0.031455 -0.03701,-0.024675 -0.05735,-0.069689 -0.09436,-0.094364 -0.0087,-0.00582 -0.02273,0.00582 -0.03146,0 -0.05506,-0.036704 -0.101445,-0.1237764 -0.157274,-0.157274 -0.214786,-0.071595 -0.01011,0.021342 -0.125819,-0.094364 -0.04486,-0.044856 -0.108138,-0.026058 -0.157274,-0.06291 -0.01876,-0.014067 -0.01195,-0.049905 -0.03145,-0.062909 -0.01745,-0.011632 -0.04415,0.00938 -0.06291,0 -0.06291,-0.031455 -0.04718,-0.06291 -0.09436,-0.094364 -0.01951,-0.013005 -0.04194,-0.02097 -0.06291,-0.031455 -0.03145,-0.031455 -0.05963,-0.066575 -0.09436,-0.094364 -0.01831,-0.014646 -0.04383,-0.017828 -0.06291,-0.031455 -0.05463,-0.039022 -0.102643,-0.086797 -0.157274,-0.1258192 -0.03816,-0.027254 -0.0868,-0.0369 -0.125819,-0.062909 -0.01234,-0.00823 -0.01912,-0.02323 -0.03146,-0.031455 -0.01951,-0.013005 -0.04633,-0.014877 -0.06291,-0.031455 -0.01658,-0.016578 -0.01488,-0.046331 -0.03146,-0.06291 -0.0764,-0.076397 -0.04619,0.00935 -0.09436,-0.062909 -0.167758,-0.2516383 0.115335,0.1153342 -0.09436,-0.094364 -0.01658,-0.016578 -0.01488,-0.046331 -0.03145,-0.062909 -0.01658,-0.016578 -0.04633,-0.014877 -0.06291,-0.031455 -0.01658,-0.016578 -0.01845,-0.043402 -0.03145,-0.06291 -0.0082,-0.012338 -0.02323,-0.019117 -0.03145,-0.031455 -0.013,-0.019507 -0.01488,-0.046331 -0.03146,-0.062909 -0.03831,-0.038311 -0.07028,-0.014734 -0.09436,-0.06291 -0.01483,-0.029656 -0.01156,-0.067839 -0.03146,-0.094364 -0.01407,-0.018756 -0.0499,-0.011947 -0.06291,-0.031455 -0.01163,-0.017448 0.0094,-0.044154 0,-0.06291 -0.01326,-0.026525 -0.04194,-0.04194 -0.06291,-0.06291 -0.01048,-0.010485 -0.02677,-0.017388 -0.03145,-0.031455 -0.0066,-0.019894 0.01163,-0.045462 0,-0.062909 -0.013,-0.019507 -0.0499,-0.011947 -0.06291,-0.031455 -0.09967,-0.1494979 0.120807,0.026443 -0.03146,-0.1258192 -0.01658,-0.016578 -0.0499,-0.011947 -0.06291,-0.031455 -0.01163,-0.017448 0.0066,-0.043016 0,-0.06291 0.07364,-0.1181749 -0.07503,-0.099274 -0.09436,-0.1572739 -0.0066,-0.019894 0.0051,-0.042566 0,-0.06291 -0.01137,-0.04549 -0.0455,-0.082283 -0.06291,-0.1258191 -0.07356,-0.01637 -0.01919,-0.089018 -0.03145,-0.1258192 -0.01483,-0.044484 -0.04808,-0.081335 -0.06291,-0.1258191 -0.0033,-0.00995 0.0033,-0.021508 0,-0.031455 -0.0074,-0.022242 -0.02097,-0.04194 -0.03145,-0.06291 -0.01049,-0.02097 -0.01845,-0.043402 -0.03145,-0.06291 -0.0082,-0.012338 -0.02482,-0.018192 -0.03145,-0.031455 -0.0047,-0.00938 0.0033,-0.021508 0,-0.031455 -0.0074,-0.022242 -0.02577,-0.040165 -0.03146,-0.062909 -0.0051,-0.020344 0.0066,-0.043016 0,-0.06291 -0.0047,-0.014067 -0.02677,-0.017388 -0.03145,-0.031455 -0.0066,-0.019894 0.0051,-0.042566 0,-0.06291 -0.01562,-0.062466 -0.07875,-0.126263 -0.09436,-0.1887287 -0.01017,-0.040688 0.01017,-0.085132 0,-0.1258191 -0.02796,-0.1118392 -0.02446,-0.024465 -0.09436,-0.094364 -0.0074,-0.00741 0.0025,-0.021283 0,-0.031455 -0.008,-0.032166 -0.0144,-0.065933 -0.03145,-0.094364 -0.01526,-0.02543 -0.04646,-0.038234 -0.06291,-0.06291 -0.0058,-0.00872 0.0047,-0.022077 0,-0.031455 -0.01691,-0.033813 -0.04346,-0.061948 -0.06291,-0.094364 -0.03619,-0.060312 -0.05947,-0.1276608 -0.09436,-0.1887287 -0.01876,-0.032823 -0.046,-0.060551 -0.06291,-0.094364 -0.0047,-0.00938 0.0033,-0.021508 0,-0.031455 -0.01483,-0.044484 -0.04194,-0.08388 -0.06291,-0.1258192 -0.02097,-0.04194 -0.04194,-0.083879 -0.06291,-0.1258191 -0.01049,-0.02097 -0.01845,-0.043402 -0.03146,-0.06291 -0.01645,-0.024675 -0.04765,-0.03748 -0.06291,-0.062909 C 14.80604,4.5813674 14.79138,4.5359644 14.76725,4.4957562 14.74436,4.4576112 14.69756,4.4384042 14.67289,4.4013922 14.64688,4.3623772 14.6341,4.3157812 14.60998,4.275573 14.60238,4.262858 14.58675,4.256456 14.57852,4.244118 14.56552,4.22461 14.56007,4.200716 14.54707,4.181208 14.53887,4.16887 14.52384,4.162091 14.51562,4.149753 14.50261,4.130246 14.49717,4.106351 14.48417,4.086843 14.45331,4.040558 14.38921,4.007309 14.35835,3.9610239 c -0.013,-0.019507 -0.01488,-0.046331 -0.03145,-0.06291 -0.0074,-0.00741 -0.02208,0.00469 -0.03145,0 -0.03775,-0.018873 -0.05662,-0.075491 -0.09436,-0.094364 -0.0094,-0.00469 -0.02273,0.00582 -0.03145,0 -0.03701,-0.024675 -0.05735,-0.069689 -0.09436,-0.094364 -0.01951,-0.013005 -0.04415,-0.017388 -0.06291,-0.031455 -0.02372,-0.017794 -0.03823,-0.04646 -0.06291,-0.06291 -0.0087,-0.00582 -0.02151,0.00332 -0.03145,0 -0.02224,-0.00741 -0.04281,-0.019392 -0.06291,-0.031455 -0.03242,-0.01945 -0.06055,-0.046003 -0.09436,-0.06291 -0.0094,-0.00469 -0.02117,0.00206 -0.03145,0 -0.04239,-0.00848 -0.08481,-0.017784 -0.125819,-0.031455 -0.178213,-0.089107 0.04689,0.011722 -0.125819,-0.031455 -0.02275,-0.00569 -0.03992,-0.026857 -0.06291,-0.031455 -0.03084,-0.00617 -0.06291,0 -0.09436,0 -0.01048,0 -0.02151,0.00332 -0.03145,0 -0.125819,-0.04194 0.0064,-0.030183 -0.157274,-0.06291 -0.02056,-0.00411 -0.04194,0 -0.06291,0 -0.03145,-0.010485 -0.0622,-0.023413 -0.09436,-0.031455 -0.03054,-0.00764 -0.139182,0.00905 -0.157273,0 -0.01326,-0.00663 -0.01819,-0.024824 -0.03146,-0.031455 -0.01876,-0.00938 -0.04415,0.00938 -0.06291,0 -0.01326,-0.00663 -0.01819,-0.024824 -0.03145,-0.031455 -0.0094,-0.00469 -0.02097,0 -0.03146,0 -0.05242,0 -0.104848,0 -0.157273,0 -0.02097,0 -0.04257,0.00509 -0.06291,0 -0.02275,-0.00569 -0.04017,-0.025769 -0.06291,-0.031455 -0.04069,-0.010172 -0.08513,0.010172 -0.125819,0 -0.02275,-0.00569 -0.04067,-0.024041 -0.06291,-0.031455 -0.0099,-0.00332 -0.02097,0 -0.03145,0 -0.02097,0 -0.04194,0 -0.06291,0 -0.08388,0 -0.167759,0 -0.251638,0 -0.02097,0 -0.04194,0 -0.06291,0 -0.01049,0 -0.02208,0.00469 -0.03146,0 -0.01326,-0.00663 -0.01739,-0.026766 -0.03145,-0.031455 -0.01989,-0.00663 -0.04194,0 -0.06291,0 -0.02097,0 -0.04194,0 -0.06291,0 -0.08388,0 -0.167759,0 -0.251639,0 -0.199213,0 -0.398426,0 -0.597641,0 -0.230667,0 -0.461336,0 -0.692004,0 -0.09436,0 -0.1889693,-0.00672 -0.2830933,0 -0.094704,0.00676 -0.1884764,0.02357 -0.2830935,0.031455 -0.3594832,0.029957 0.3844475,-0.0699 -0.3145478,0 -0.032992,0.0033 -0.061852,0.024952 -0.094364,0.031455 -0.06049,0.012098 -0.1282387,-0.012098 -0.1887287,0 -0.032512,0.0065 -0.061852,0.024952 -0.094364,0.031455 -0.041125,0.00822 -0.085132,-0.010172 -0.1258192,0 -0.022745,0.00569 -0.040164,0.025768 -0.062909,0.031455 -0.020344,0.00509 -0.04194,0 -0.06291,0 -0.052425,0 -0.1058673,-0.010281 -0.1572739,0 -0.02299,0.0046 -0.039784,0.027601 -0.06291,0.031455 -0.041369,0.00689 -0.084301,-0.00593 -0.1258191,0 -0.2048561,0.068285 0.015304,0.00595 -0.1887287,0.031455 -0.05305,0.00663 -0.1054074,0.018488 -0.1572739,0.031455 -0.1194999,0.029875 -0.082899,0.043297 -0.2201835,0.06291 -0.072657,0.010379 -0.1475267,-0.01038 -0.2201835,0 -0.054416,0.00777 -0.1086835,0.038614 -0.1572739,0.062909 -0.02097,0.010485 -0.040165,0.025769 -0.06291,0.031455 -0.040687,0.010172 -0.086032,-0.013263 -0.1258191,0 -0.014067,0.00469 -0.018192,0.024824 -0.031455,0.031455 -0.00938,0.00469 -0.022077,-0.00469 -0.031455,0 -0.013262,0.00663 -0.016915,0.028547 -0.031455,0.031455 -0.041125,0.00822 -0.083879,0 -0.1258191,0 -0.010485,0 -0.022077,-0.00469 -0.031455,0 -0.013262,0.00663 -0.017687,0.025948 -0.031455,0.031455 -0.040139,0.016055 -0.084807,0.017784 -0.1258191,0.031455 -0.022242,0.00741 -0.040165,0.025768 -0.06291,0.031455 -0.020344,0.00509 -0.042566,-0.00509 -0.06291,0 -0.022745,0.00569 -0.041141,0.022748 -0.062909,0.031455 -0.030785,0.012314 -0.06291,0.02097 -0.094364,0.031455 -0.031455,0.010485 -0.061852,0.024952 -0.094364,0.031455 -0.020563,0.00411 -0.043016,-0.00663 -0.06291,0 -0.014067,0.00469 -0.019117,0.02323 -0.031455,0.031455 -0.019507,0.013005 -0.040668,0.024041 -0.06291,0.031455 -0.00995,0.00332 -0.021508,-0.00332 -0.031455,0 -0.022242,0.00741 -0.040668,0.024041 -0.06291,0.031455 -0.00995,0.00332 -0.024041,-0.00741 -0.031455,0 -0.00741,0.00741 0.00938,0.026766 0,0.031455 -0.018756,0.00938 -0.044154,-0.00938 -0.062909,0 -0.00938,0.00469 0.00741,0.024041 0,0.031455 -0.00741,0.00741 -0.022077,-0.00469 -0.031455,0 -0.013263,0.00663 -0.019117,0.02323 -0.031455,0.031455 -0.019507,0.013005 -0.043402,0.01845 -0.06291,0.031455 -0.012338,0.00822 -0.019117,0.02323 -0.031455,0.031455 -0.082453,0.054969 -0.054969,0.011757 -0.1572739,0.062909 -0.095923,0.047962 0.057529,0.024936 -0.094364,0.06291 -0.020344,0.00509 -0.043016,-0.00663 -0.06291,0 -0.028134,0.00938 -0.034776,0.053532 -0.06291,0.06291 -0.019894,0.00663 -0.043016,-0.00663 -0.062909,0 -0.014067,0.00469 -0.019592,0.022558 -0.031455,0.031455 -0.030243,0.022682 -0.059264,0.04887 -0.094364,0.06291 -0.01947,0.00779 -0.043016,-0.00663 -0.06291,0 -0.028134,0.00938 -0.034776,0.053532 -0.06291,0.06291 -0.019894,0.00663 -0.043016,-0.00663 -0.06291,0 -0.014067,0.00469 -0.019117,0.02323 -0.031455,0.031455 -0.2280654,0.1140327 0.049734,-0.033156 -0.094364,0.062909 -0.072875,0.048583 -0.052945,0.014327 -0.1258191,0.06291 -0.012338,0.00823 -0.019117,0.02323 -0.031455,0.031455 -0.076923,0.051282 -0.048896,0.011627 -0.1258192,0.062909 -0.012338,0.00823 -0.018192,0.024824 -0.031455,0.031455 -0.029656,0.014828 -0.064709,0.016627 -0.094364,0.031455 -0.013263,0.00663 -0.02097,0.02097 -0.031455,0.031455 -0.02097,0.010485 -0.041141,0.022747 -0.06291,0.031455 -0.030785,0.012314 -0.067839,0.011561 -0.094364,0.031455 -0.019099,0.038199 -0.026885,0.070348 -0.06291,0.094364 -0.034597,0.023065 -0.167051,0.072687 -0.1887287,0.094364 -0.016578,0.016578 -0.014877,0.046331 -0.031455,0.062909 -0.016578,0.016578 -0.046331,0.014877 -0.062909,0.031455 -0.016578,0.016578 -0.014877,0.046331 -0.031455,0.06291 -0.00741,0.00741 -0.022077,-0.00469 -0.031455,0 -0.0168,0.0084 -0.077805,0.077805 -0.094364,0.094364 -0.072137,0.072137 0.012337,-0.01645 -0.094364,0.1258192 -0.0089,0.011862 -0.024824,0.018192 -0.031455,0.031455 -0.00469,0.00938 0.00469,0.022077 0,0.031455 -0.013263,0.026525 -0.049647,0.036385 -0.062909,0.06291 -0.00469,0.00938 0.00469,0.022077 0,0.031455 -0.00663,0.013263 -0.024824,0.018192 -0.031455,0.031455 -0.00469,0.00938 0.00469,0.022077 0,0.031455 -0.00663,0.013262 -0.024824,0.018192 -0.031455,0.031455 -0.00938,0.018756 0.00938,0.044154 0,0.06291 -0.00663,0.013263 -0.024824,0.018192 -0.031455,0.031455 -0.00469,0.00938 0,0.02097 0,0.031455 0,0.010485 0,0.02097 0,0.031455 0,0.052425 0,0.1048492 0,0.1572739 0,0.094364 0,0.1887287 0,0.283093 0,0.02172 -0.00478,0.1162558 0,0.1258192 0.00663,0.013262 0.026766,0.017388 0.031455,0.031455 0.00663,0.019894 -0.00663,0.043016 0,0.06291 0.00469,0.014067 0.024824,0.018192 0.031455,0.031455 0.014828,0.029656 0.016627,0.064709 0.031455,0.094364 0.013262,0.026525 0.049647,0.036384 0.062909,0.062909 0.00469,0.00938 -0.00469,0.022077 0,0.031455 0.00663,0.013263 0.02097,0.02097 0.031455,0.031455 0.010485,0.010485 0.02097,0.02097 0.031455,0.031455 0.010485,0.010485 0.02097,0.02097 0.031455,0.031455 0.010485,0.010485 0.024824,0.018192 0.031455,0.031455 0.038736,0.077472 -0.091305,-0.028395 0.031455,0.094364 0.00741,0.00741 0.024041,-0.00741 0.031455,0 0.014828,0.014828 -0.014828,0.048082 0,0.06291 0.00741,0.00741 0.024041,-0.00741 0.031455,0 0.014828,0.014828 -0.00938,0.044154 0,0.062909 0.065454,0.1309073 -0.00217,-0.033626 0.06291,0.031455 0.00741,0.00741 -0.00469,0.022077 0,0.031455 0.00663,0.013262 0.02323,0.019117 0.031455,0.031455 0.013005,0.019507 0.014877,0.046331 0.031455,0.062909 0.00741,0.00741 0.02097,0 0.031455,0 0.010485,0.02097 0.014877,0.046331 0.031455,0.06291 0.00741,0.00741 0.026766,-0.00938 0.031455,0 0.00938,0.018756 -0.00663,0.043016 0,0.06291 0.00469,0.014067 0.02097,0.02097 0.031455,0.031455 0.02097,0.02097 0.045116,0.039185 0.062909,0.062909 0.028134,0.037512 0.0369,0.086804 0.06291,0.1258192 0.01645,0.024675 0.049647,0.036384 0.06291,0.062909 0.00469,0.00938 -0.00469,0.022077 0,0.031455 0.013263,0.026525 0.049647,0.036385 0.062909,0.06291 0.00469,0.00938 0,0.02097 0,0.031455 0.010485,0.02097 0.01845,0.043402 0.031455,0.062909 0.00823,0.012338 0.02323,0.019117 0.031455,0.031455 0.013005,0.019507 0.01845,0.043402 0.031455,0.06291 0.00823,0.012338 0.02323,0.019117 0.031455,0.031455 0.013005,0.019507 0.01845,0.043402 0.031455,0.062909 0.01645,0.024675 0.049647,0.036385 0.062909,0.06291 0.00469,0.00938 -0.00469,0.022077 0,0.031455 0.00663,0.013262 0.024824,0.018192 0.031455,0.031455 0.00469,0.00938 -0.00741,0.024041 0,0.031455 0.00741,0.00741 0.026766,-0.00938 0.031455,0 0.00938,0.018756 -0.00938,0.044153 0,0.062909 0.00469,0.00938 0.026766,-0.00938 0.031455,0 0.00938,0.018756 -0.00938,0.044154 0,0.06291 0.03254,0 0.043475,-0.00741 0.06291,0.031455 0.00469,0.00938 0,0.02097 0,0.031455 0.010485,0.010485 0.024824,0.018192 0.031455,0.031455 0.00469,0.00938 -0.00741,0.024041 0,0.031455 0.00741,0.00741 0.024041,-0.00741 0.031455,0 0.00202,0.00202 0.059004,0.11996 0.06291,0.1258192 0.019089,0.028634 0.080425,0.066485 0.094364,0.094364 0.00469,0.00938 -0.00469,0.022077 0,0.031455 0.00728,0.014566 0.1073192,0.1073192 0.1258192,0.1258191 0.010485,0.010485 0.024824,0.018192 0.031455,0.031455 0.00469,0.00938 -0.00741,0.024041 0,0.031455 0.00741,0.00741 0.024041,-0.00741 0.031455,0 0.00741,0.00741 -0.00469,0.022077 0,0.031455 0.018873,0.037746 0.075492,0.056619 0.094364,0.094364 0.00469,0.00938 -0.00469,0.022077 0,0.031455 0.032491,0.064982 0.051152,-0.00191 0.094364,0.06291 0.013005,0.019507 0.01845,0.043402 0.031455,0.06291 0.00823,0.012338 0.02097,0.02097 0.031455,0.031455 0.02097,0.02097 0.04194,0.04194 0.06291,0.06291 0.010485,0.010485 0.02097,0.02097 0.031455,0.031455 0.010485,0.010485 0.017069,0.027858 0.031455,0.031455 0.030516,0.00763 0.072122,-0.022242 0.094364,0 0.031455,0.06291 0.06291,0.1258191 0.094364,0.1887287 0.010485,0 0.024041,-0.00741 0.031455,0 0.018798,0.018798 -0.033999,0.062909 0.031455,0.062909 0.010485,0 0.00332,-0.021508 0,-0.031455 -0.00741,-0.022242 -0.01845,-0.043402 -0.031455,-0.06291 -0.00822,-0.012338 -0.02097,-0.02097 -0.031455,-0.031455"
     id="path4552"
     inkscape:connector-curvature="0" />
</svg>
